<?xml version="1.0" encoding="UTF-8" standalone="no"?>
<svg
   width="64"
   height="64"
   version="1"
   id="svg1239"
   xmlns="http://www.w3.org/2000/svg"
   xmlns:svg="http://www.w3.org/2000/svg">
  <defs
     id="defs1243" />
  <rect
     style="opacity:0.2"
     width="56"
     height="56"
     x="4"
     y="5.0000019"
     rx="2.8"
     ry="2.8"
     id="rect4339" />
  <rect
     style="display:inline;fill:#0f56d9;fill-opacity:1"
     width="56"
     height="56"
     x="4"
     y="4.0000019"
     rx="2.8"
     ry="2.8"
     id="rect4341" />
  <path
     style="display:inline;opacity:0.1;fill:#ffffff"
     d="m 6.8007833,4 c -1.5512,0 -2.800781,1.249581 -2.800781,2.800781 v 1 C 4.0000023,6.249581 5.2495833,5 6.8007833,5 H 57.199221 c 1.5512,0 2.800781,1.249581 2.800781,2.800781 v -1 C 60.000002,5.249581 58.750421,4 57.199221,4 Z"
     id="path4343" />
  <path
     style="opacity:0.2;stroke-width:1"
     d="m 35.445479,14.999952 c -6.913577,0 -12.625586,5.654837 -12.625586,12.568334 0,2.627696 0.888414,5.045157 2.282611,7.069802 l -8.417133,8.426497 a 2.2951669,2.2977199 0 0 0 3.210038,3.284906 l 8.417135,-8.426497 c 2.025337,1.396021 4.503594,2.21374 7.133164,2.21374 6.913803,0 12.554367,-5.654836 12.554367,-12.568333 0,-6.913498 -5.640564,-12.568334 -12.554367,-12.568334 z m 0,4.570304 c 4.445158,0 7.989143,3.552953 7.989143,7.99803 0,4.444849 -3.543985,7.99803 -7.989143,7.99803 -4.44516,0 -7.989145,-3.553181 -7.989145,-7.99803 0,-4.445077 3.543985,-7.99803 7.989145,-7.99803 z"
     id="path1231" />
  <path
     style="fill:#ffffff;stroke-width:1"
     d="m 35.445458,14 c -6.913573,0 -12.625581,5.654821 -12.625581,12.568301 0,2.627691 0.888416,5.045145 2.282611,7.069785 l -8.417131,8.426475 a 2.2951661,2.2977142 0 0 0 3.210038,3.284896 l 8.417131,-8.426475 c 2.025337,1.396019 4.503592,2.213735 7.133161,2.213735 6.913802,0 12.554365,-5.654821 12.554365,-12.568301 0,-6.91348 -5.640563,-12.568302 -12.554365,-12.568302 z m 0,4.570291 c 4.44516,0 7.989142,3.552945 7.989142,7.99801 0,4.444837 -3.543982,7.998011 -7.989142,7.998011 -4.445157,0 -7.989139,-3.553174 -7.989139,-7.998011 0,-4.445065 3.543982,-7.99801 7.989139,-7.99801 z"
     id="path1235" />
  <path
     d="M 63.958,48.00034 A 16,16 0 0 1 48,63.152337 16,16 0 0 1 32.042,48.30434 16,16 0 0 0 32,49.15234 16,16 0 0 0 48,65.152337 16,16 0 0 0 64,49.15234 16,16 0 0 0 63.95704,48 Z"
     style="opacity:0.2"
     id="path10394" />
  <circle
     cx="48.000004"
     cy="48"
     r="16"
     style="fill:#ff4000;fill-opacity:1"
     id="circle10396" />
  <path
     d="m 46,39.999997 -0.1764,2.1072 a 6.2858,6.2858 0 0 0 -1.83704,1.06252 l -1.91518,-0.9018 -2,3.4642 1.73882,1.2076 a 6.2858,6.2858 0 0 0 -0.096,1.06026 6.2858,6.2858 0 0 0 0.0914,1.06474 l -1.73438,1.20312 2,3.4642 1.91072,-0.89956 a 6.2858,6.2858 0 0 0 1.8415,1.0558 l 0.1764,2.1116 h 4 l 0.1764,-2.1072 a 6.2858,6.2858 0 0 0 1.83708,-1.06252 l 1.91516,0.9018 2,-3.4642 -1.73884,-1.2076 a 6.2858,6.2858 0 0 0 0.096,-1.06026 6.2858,6.2858 0 0 0 -0.0914,-1.06474 l 1.73438,-1.20312 -2,-3.4642 -1.91072,0.89956 a 6.2858,6.2858 0 0 0 -1.842,-1.056 l -0.176,-2.112 h -4 z m 2,5.7144 a 2.2858,2.2858 0 0 1 2.286,2.286 2.2858,2.2858 0 0 1 -2.286,2.286 2.2858,2.2858 0 0 1 -2.286,-2.286 2.2858,2.2858 0 0 1 2.286,-2.286 z"
     style="fill:#ffffff"
     id="path10398" />
</svg>
