<?xml version="1.0" encoding="UTF-8" standalone="no"?>
<svg
   width="64"
   height="64"
   version="1.1"
   id="svg498"
   xmlns="http://www.w3.org/2000/svg"
   xmlns:svg="http://www.w3.org/2000/svg">
  <defs
     id="defs502">
    <rect
       x="19"
       y="47"
       width="34"
       height="13"
       id="rect2201" />
  </defs>
  <rect
     style="opacity:0.2"
     width="56"
     height="56"
     x="4"
     y="5"
     rx="2.8"
     ry="2.8"
     id="rect488" />
  <rect
     style="display:inline;fill:#d00d0d;fill-opacity:1"
     width="56"
     height="56"
     x="4"
     y="4"
     rx="2.8"
     ry="2.8"
     id="rect2071" />
  <path
     style="display:inline;opacity:0.1;fill:#ffffff"
     d="M 6.8008,4 C 5.2496,4 4,5.2496 4,6.8008 v 1 C 4,6.2496 5.2496,5 6.8008,5 H 57.199 C 58.75,5 60,6.2496 60,7.8008 v -1 C 60,5.2496 58.75,4 57.199,4 Z"
     id="path492" />
  <path
     style="display:inline;opacity:1;fill:#ffffff;fill-opacity:1;fill-rule:evenodd;stroke:#ffffff;stroke-width:0;stroke-miterlimit:5;stroke-dasharray:none;paint-order:markers fill stroke"
     d="M 12,47 C 11,44 10,42 11,39 10,35 10.444156,30.712296 13,28 22.647423,17.762025 39,17 54,18 41.239763,19.53769 27.453341,20.979086 17,31 27,24 41,23 54,24 40.9392,25.8271 29.498216,27.811622 20,35 c -3.833348,2.90113 -6.674717,6.892858 -8,12 z"
     id="path763" />
  <path
     d="m 47.322043,29.917262 v 6.601094 q 0,0.33679 0.516412,0.538864 0.538865,0.202075 1.324709,0.202075 0.808297,0 1.324709,-0.202075 0.516412,-0.224527 0.516412,-0.538864 v -6.623547 q 0,-1.055277 -1.661499,-1.908479 -2.043196,-1.032825 -5.702986,-1.032825 -1.841121,0 -3.210736,0.24698 -1.369615,0.24698 -2.312628,0.696034 -0.943014,-0.426601 -2.335081,-0.673581 -1.369615,-0.269433 -3.188283,-0.269433 -3.65979,0 -5.702986,1.032825 -1.6615,0.853202 -1.6615,1.908479 v 6.623547 q 0,0.33679 0.516412,0.538864 0.538865,0.202075 1.32471,0.202075 0.83075,0 1.324709,-0.202075 0.516412,-0.202074 0.516412,-0.538864 v -6.623547 q 0,-0.696034 0.987919,-1.077729 0.987919,-0.381696 2.694324,-0.381696 2.604513,0 3.41281,0.875655 0.269432,0.314338 0.269432,0.606223 v 6.601094 q 0,0.33679 0.516413,0.538864 0.538864,0.202075 1.324709,0.202075 0.808297,0 1.324709,-0.202075 0.516412,-0.224527 0.516412,-0.538864 v -6.623547 q 0,-0.696034 0.987919,-1.077729 0.987919,-0.381696 2.694324,-0.381696 2.604513,0 3.41281,0.875655 0.269433,0.314338 0.269433,0.606223 z"
     id="path1511"
     style="font-size:22.4527px;font-family:'Crackdown R2 BRK';-inkscape-font-specification:'Crackdown R2 BRK';opacity:1;fill:#ffffff;fill-rule:evenodd;stroke:#ffffff;stroke-width:0;stroke-miterlimit:5;paint-order:markers fill stroke"
     transform="scale(0.79275153,1.2614293)" />
  <path
     d="m 52.30654,36.204018 q -0.179621,0.179621 -0.179621,0.314338 0,0.471506 1.010371,0.67358 0.359244,0.06736 0.785845,0.06736 0.493959,0 0.987919,-0.112264 0.493959,-0.112263 0.696033,-0.291885 l 3.884317,-3.098473 3.861865,3.098473 q 0.561317,0.404149 1.661499,0.404149 0.426602,0 0.808298,-0.06736 1.032824,-0.224527 1.032824,-0.651128 0,-0.157169 -0.202074,-0.33679 L 61.5346,32.117626 66.653816,28.031235 q 0.202074,-0.157169 0.202074,-0.314338 0,-0.449054 -1.032824,-0.673581 -0.202075,-0.02245 -0.404149,-0.0449 -0.202074,-0.04491 -0.404149,-0.04491 -1.100182,0 -1.661499,0.404149 l -3.861865,3.098473 -3.884317,-3.098473 q -0.516412,-0.404149 -1.616594,-0.404149 -0.269432,0 -0.471507,0.04491 -0.179621,0.02245 -0.381696,0.0449 -1.010371,0.202075 -1.010371,0.673581 0,0.134716 0.179621,0.314338 l 5.119216,4.086391 z"
     id="path1513"
     style="font-size:22.4527px;font-family:'Crackdown R2 BRK';-inkscape-font-specification:'Crackdown R2 BRK';opacity:1;fill:#ffffff;fill-rule:evenodd;stroke:#ffffff;stroke-width:0;stroke-miterlimit:5;paint-order:markers fill stroke"
     transform="scale(0.79275153,1.2614293)" />
</svg>
