<?xml version="1.0" encoding="UTF-8" standalone="no"?>
<svg
   width="32"
   height="32"
   viewBox="0 0 32 32"
   version="1.1"
   id="svg2920"
   xmlns="http://www.w3.org/2000/svg"
   xmlns:svg="http://www.w3.org/2000/svg">
  <path
     style="fill:#ffffff;fill-opacity:1;stroke-width:0.999999"
     class="ColorScheme-Text"
     d="M 12.512372,2 12.203381,5.6922528 A 11.014178,11.014178 0 0 0 8.9843934,7.5540244 L 5.6285112,5.9738653 2.124,12.044179 5.1708909,14.160184 a 11.014178,11.014178 0 0 0 -0.1681853,1.857861 11.014178,11.014178 0 0 0 0.1603626,1.865682 L 2.124,19.99191 5.6285112,26.062224 8.9765709,24.485977 a 11.014178,11.014178 0 0 0 3.2268101,1.850037 L 12.50455,30.04 h 7.009022 l 0.308992,-3.692253 a 11.014178,11.014178 0 0 0 3.218986,-1.86177 l 3.355884,1.580158 3.504511,-6.070314 -3.046892,-2.116005 a 11.014178,11.014178 0 0 0 0.168196,-1.85786 11.014178,11.014178 0 0 0 -0.160366,-1.865683 L 29.901951,12.048091 26.39744,5.9777766 23.04938,7.5540244 A 11.014178,11.014178 0 0 0 19.822564,5.7039867 L 19.521395,2 Z m 3.504512,10.012889 a 4.0051556,4.0051556 0 0 1 4.005155,4.005156 4.0051556,4.0051556 0 0 1 -4.005155,4.005155 4.0051556,4.0051556 0 0 1 -4.005156,-4.005155 4.0051556,4.0051556 0 0 1 4.005156,-4.005156 z"
     id="path2918" />
</svg>
